<svg clip-rule="evenodd" fill-rule="evenodd" stroke-linejoin="round" stroke-miterlimit="2" viewBox="0 0 560 400" xmlns="http://www.w3.org/2000/svg"><path d="m39.094 82.36 1.654 1.485-2.105 1.618-1.035-1.909 1.486-1.193zm-.125-10.482c2.81 2.709 2.994 7.254.347 10.162-.263-.215-.536-.427-.796-.654-.268-.235-.523-.485-.836-.777 1.023-1.304 1.51-2.763 1.19-4.404-.222-1.185-.863-2.252-1.805-3.005-1.896-1.546-4.659-1.531-6.527.026-1.871 1.56-2.41 4.21-1.282 6.312 1.318 2.46 3.697 3.239 7.005 2.247l.946 1.766c-2.116 1.79-6.578 1.059-8.862-1.423-2.666-2.899-2.518-7.497.332-10.25 2.85-2.754 7.431-2.754 10.288 0zm-32.225-1.838c1.581.029 1.586-.005 2.16 1.443 1.58 3.984 3.157 7.97 4.732 11.955.095.24.165.49.279.834-.815 0-1.53.038-2.239-.022-.221-.018-.514-.253-.613-.464-.305-.646-.566-1.313-.781-1.994-.158-.494-.39-.715-.95-.699-1.464.042-2.93.034-4.394.004-.528-.011-.857.137-.979.668-.04.172-.126.334-.19.5-.861 2.217-.861 2.217-3.485 1.93.908-2.291 1.78-4.5 2.657-6.706.879-2.212 1.784-4.416 2.63-6.64.227-.596.529-.82 1.173-.809zm8.965.087c1.758 0 3.383-.142 4.975.03 3.29.357 4.891 3.977 2.925 6.466-.36.454-.867.79-1.358 1.227l4.733 6.42c-1.038 0-1.893.036-2.742-.024-.234-.016-.498-.282-.663-.497-1.145-1.49-2.325-2.958-3.372-4.514-.563-.836-1.199-1.057-2.21-.789v5.78h-2.287zm42.494-.086c.718-.008 1.06.16.965.934-.054.436-.01.884-.01 1.456h-4.514v11.776h-2.394v-11.741h-4.45v-2.346c.25-.02.532-.061.814-.062h6.392c1.066-.001 2.131-.006 3.196-.017zm-12.638.068v14.088h-2.227v-14.087h2.227zm-38.455 3.197c-.71 1.908-1.333 3.584-1.992 5.351h4.005l-.284-.753-.562-1.495zm14.342.04c-.746-1.34-2.138-.802-3.39-.915v3.59c1.221-.085 2.54.325 3.323-.86.294-.444.326-1.348.067-1.814zm29.554-22.744 6.296 5.65c-2.389 2.68-5.124 4.798-8.326 6.486l-3.973-7.453zm1.116-40.495c10.75 12.402 8.762 29.657-.302 39.223l-6.572-5.9c7.757-8.954 6.508-21.522-1.32-28.956-7.24-6.876-19.03-7.458-27.051-1.126-8.211 6.483-10.337 17.95-5.005 26.86 5.414 9.046 17.141 13.003 27.54 7.765l4.14 7.764c-9.96 5.779-26.708 5.146-36.912-7.471-10.248-12.673-8.42-31.137 4.016-41.387 12.518-10.319 30.991-8.856 41.464 3.228z" fill-rule="nonzero" transform="matrix(3.36558 0 0 3.35818 179.998 56.5002)"/></svg>