<?xml version="1.0" encoding="utf-8"?>
<!-- Generator: Adobe Illustrator 26.0.3, SVG Export Plug-In . SVG Version: 6.00 Build 0)  -->
<svg version="1.0" id="katman_1" xmlns="http://www.w3.org/2000/svg" xmlns:xlink="http://www.w3.org/1999/xlink" x="0px" y="0px"
	 viewBox="0 0 800 600" style="enable-background:new 0 0 800 600;" xml:space="preserve">
<style type="text/css">
	.st0{fill:#5A23AF;}
</style>
<path class="st0" d="M308,170.3l-2.8,2.2c-1.1-1.3-2.2-2.6-3.1-3.9l2.7-1.9C305.5,167.5,306.5,168.7,308,170.3z M306.1,165.9
	c1,1.2,2,2.4,3.1,3.5l2.4-1.9c-1.3-1.3-2.3-2.4-3.1-3.3L306.1,165.9z M338.5,179.5c1,0.6,1.7,1,2.1,1.2l1.4-2.6
	c-0.7-0.4-1.3-0.8-2-1.2L338.5,179.5z M335.9,184.1c1.3,0.8,2.1,1.2,2.2,1.2l1.3-2.4c-0.7-0.4-1.4-0.9-2.1-1.3L335.9,184.1z
	 M333.4,188.3c1.5,0.8,2.3,1.3,2.4,1.3l1.1-2c-0.8-0.4-1.5-0.9-2.2-1.3L333.4,188.3z M330.7,193.1c0.8,0.4,1.7,1,2.5,1.4l1.4-2.7
	c-0.8-0.4-1.6-1-2.4-1.4L330.7,193.1z M325.7,190c0.8,0.5,1.7,1.1,2.5,1.6l1.7-2.8c-0.8-0.6-1.7-1.1-2.4-1.7L325.7,190z
	 M332.5,184.8c-0.8-0.6-1.7-1.1-2.4-1.7l-1.4,2.2c0.9,0.6,1.7,1.1,2.5,1.6L332.5,184.8z M331.2,181.3c0.9,0.6,1.7,1.1,2.5,1.5
	l1.6-2.5c-0.8-0.6-1.7-1.1-2.4-1.7L331.2,181.3z M336.6,178.4l1.6-2.4c-1-0.6-2-1.2-2.9-1.9l0.4,0.3l-1.6,2.4
	C335,177.4,335.9,177.9,336.6,178.4z M332.5,175.7l1.6-2.4c-1-0.6-2-1.3-2.9-2l0.3,0.2l-1.7,2.4
	C330.8,174.6,331.7,175.1,332.5,175.7z M331.3,177.5c-0.9-0.6-1.7-1.3-2.5-1.9l-1.9,2.8c1,0.6,1.8,1.3,2.7,1.8L331.3,177.5z
	 M328.3,181.9c-0.9-0.6-1.8-1.3-2.6-1.9l-1.6,2.3c1,0.6,1.8,1.3,2.7,1.9L328.3,181.9z M321,186.8c0.9,0.6,1.8,1.3,2.7,1.9l1.9-2.8
	c-0.9-0.6-1.8-1.3-2.6-1.9L321,186.8z M325.9,170.9c0.9,0.7,1.8,1.4,2.7,2l1.8-2.3c-0.9-0.6-1.7-1.3-2.5-2L325.9,170.9z
	 M327.3,174.4c-0.9-0.7-1.8-1.5-2.6-2.2l-2.3,2.8c1,0.8,1.9,1.5,2.9,2.2L327.3,174.4z M324,178.7c-1-0.8-1.9-1.5-2.9-2.3l-1.9,2.2
	c1,0.8,2,1.6,3,2.3L324,178.7z M318.2,180l-2.4,2.8c1,0.8,2.1,1.7,3.2,2.5l2.2-2.9C320.1,181.6,319.1,180.8,318.2,180z M321.6,167.4
	c1,0.8,1.9,1.7,2.9,2.4l2-2.2c-1-0.8-1.8-1.5-2.7-2.4L321.6,167.4z M323.3,171.2c-1-0.9-2-1.7-2.9-2.6l-2.7,2.7
	c1,0.9,2.1,1.8,3.1,2.6L323.3,171.2z M319.8,175.2c-1.1-1-2.1-1.9-3.1-2.8l-2.2,2.2c1.1,1,2.2,1.9,3.2,2.8L319.8,175.2z
	 M313.4,175.7l-2.7,2.7c1.1,1,2.2,2.1,3.4,3.1l2.5-2.8C315.5,177.7,314.4,176.7,313.4,175.7z M320.3,161.6l-2.6,2.1c1,1,2,1.9,3,2.8
	l2.2-2.2c-0.2-0.2-0.4-0.4-0.6-0.6C321.5,163,320.9,162.3,320.3,161.6z M313.5,167.2c1.1,1.1,2.2,2.1,3.3,3.1l2.7-2.6
	c-1.1-1-2.1-2-3-2.9L313.5,167.2z M312.3,168.2l-2.4,2c1.1,1.2,2.3,2.4,3.5,3.5l2.2-2.2C314.4,170.3,313.3,169.1,312.3,168.2z
	 M308.7,171l-2.9,2.3c1.2,1.3,2.4,2.6,3.7,3.9l2.7-2.6C310.9,173.4,309.7,172.1,308.7,171z M314.2,160.1c1,1,1.9,2,2.9,3l2.7-2.1
	c-0.9-1-1.7-2-2.4-3L314.2,160.1z M309.8,163.2c1,1.2,2,2.2,3.1,3.3l3.1-2.4c-1.1-1.2-2-2.2-2.9-3.1L309.8,163.2z M470,120.3
	l-0.3-3.4c-1.6,0.2-3.2,0.4-4.9,0.7l0.5,3.6C467.4,120.8,469,120.5,470,120.3z M465.9,125.8c1.7-0.4,3.2-0.8,4.4-1l-0.3-3
	c-1.5,0.3-3.1,0.6-4.6,0.9L465.9,125.8z M468.6,215.6c-15.4,14.6-32.5,24.7-48,29.6c-0.6,0.2-1.1,0.4-1.8,0.6
	c-18.9,6.3-39.6,2.2-54.6-10.4c-0.3-0.2-0.4-0.4-0.7-0.6c-0.1-0.1-0.1-0.1-0.1-0.1c0.3,0.3,0.5,0.4,0.8,0.7
	c2.9,11.4,7.1,22.3,12.4,31.4c10.2,17.8,22.1,25.8,28.2,24.3c3.1-0.8,6.2-4.4,8.7-9.7l3.5,1.6l1.3,0.6l3.6,1.7l1.3,0.6l2.7,1.3
	l1.3,0.6l3,1.4c-4.9,10.6-12.1,17.8-21.2,20c-24.1,5.8-52.3-25.8-63.1-70.7c-5-21.1-5.3-41.4-1.7-57.5c1.1-6.6,3.4-13.1,7-19.1
	c6.9-11.9,17.5-20.4,29.5-24.8c-11.3-3.2-22.7-4.9-33.2-4.9c-20.4,0-33.3,6.4-35.1,12.4c-0.9,3.1,0.6,7.6,4,12.5l-3.2,2.2l-1.2,0.8
	l-3.2,2.2l-1.2,0.8l-2.5,1.7l-1.2,0.8l-2.7,1.9c-6.7-9.5-9.3-19.4-6.7-28.5c7-23.9,48.4-32.7,92.3-19.7c31.1,9.2,55.2,26.9,64.2,45
	c6,11.5,7.8,24.3,5.7,36.2c8.3-8.1,15.5-17,20.7-26c10.3-17.7,11.3-32.1,7.1-36.7c-2.2-2.4-6.8-3.3-12.7-2.8l-0.3-3.9l-0.1-1.5
	l-0.3-3.9l-0.1-1.5l-0.3-3l-0.1-1.5l-0.3-3.3c11.5-1,21.4,1.7,27.8,8.6C515.3,143.6,502,184,468.6,215.6z M381.4,224.1
	c3.6,2.1,7.3,3.6,11.1,4.4c15.7,3.5,32.4-3.4,40.9-18.1c2.7-4.5,4.3-9.5,4.9-14.4c0.1-0.3,0.1-0.6,0.1-0.9c0-0.2,0-0.3,0.1-0.5
	c0.1-0.5,0.1-1,0.1-1.5c0-0.1,0-0.2,0-0.3c0-0.6,0.1-1.2,0.1-1.7c0-0.1,0-0.1,0-0.2c0-3.1-0.4-6-1.1-8.9c0,0,0,0,0-0.1
	c-0.3-1-0.5-1.9-0.8-2.8c-2.5-7.6-7.2-14.1-13.4-18.8c-7.8-5.8-17.7-8.3-27.4-7.1c-4.8,0.6-9.7,2.2-14.1,4.8c-3.6,2-6.7,4.7-9.3,7.6
	c-10.7,12-13.1,30-4.6,44.7c1.5,2.6,3.2,5,5.2,7.1c0.2,0.2,0.3,0.3,0.5,0.5c0.1,0.1,0.3,0.3,0.3,0.3
	C376.1,220.5,378.6,222.4,381.4,224.1z M362.7,234.1c-0.2-0.2-0.4-0.3-0.6-0.5c-0.1-0.1-0.1-0.1-0.1-0.1c0.3,0.3,0.6,0.5,0.8,0.8
	C362.8,234.2,362.8,234.1,362.7,234.1z M443.5,145.5l-1.5-2.6c-1,0.6-1.7,1-2,1.2l1.5,2.5C442.1,146.3,442.8,145.9,443.5,145.5z
	 M440.8,140.9l-1.4-2.5c-1.3,0.8-2.1,1.3-2.2,1.3l1.4,2.3C439.3,141.7,440.1,141.3,440.8,140.9z M434.7,135.6l1.2,1.9
	c0.8-0.4,1.5-0.8,2.3-1.3l-1.2-2.1C435.6,135.1,434.8,135.6,434.7,135.6z M435.8,132.1l-1.5-2.7c-0.8,0.4-1.7,1-2.4,1.5l1.6,2.6
	C434.2,132.9,435,132.6,435.8,132.1z M440.9,129.6l-1.5-2.9c-0.9,0.4-1.8,0.9-2.6,1.4l1.5,2.9C439.2,130.4,440,130,440.9,129.6z
	 M443.1,133.8l-1.1-2.3c-1,0.5-1.8,1-2.6,1.4l1.1,2.2C441.4,134.7,442.2,134.2,443.1,133.8z M444.1,135.8c-1,0.5-1.8,1-2.6,1.4
	l1.3,2.7c0.9-0.4,1.8-0.8,2.7-1.3L444.1,135.8z M448.3,142.9l-0.5,0.3l-1.3-2.6c-1,0.5-1.8,1-2.6,1.3l1.3,2.6
	C446.3,144,447.2,143.4,448.3,142.9z M452.6,140.8l-0.3,0.1l-1.2-2.6c-1,0.4-2,0.9-2.9,1.3l1.2,2.6
	C450.5,141.8,451.6,141.3,452.6,140.8z M450.3,136.5l-1.4-3.1c-1,0.4-2,1-2.9,1.4l1.4,2.9C448.4,137.4,449.3,136.9,450.3,136.5z
	 M444,130.5l1.1,2.4c1-0.4,2-0.9,3-1.3l-1.1-2.6C445.8,129.6,444.9,130.1,444,130.5z M446.1,127.3l-1.5-3.2c-1,0.4-2,0.9-3,1.4
	l1.5,3.1C444.1,128.1,445.1,127.8,446.1,127.3z M456.7,139.2l-1-2.8c-1.1,0.4-2.1,0.8-3.1,1.3l1.1,2.7
	C454.7,139.9,455.8,139.5,456.7,139.2z M454,131.3c-1.1,0.4-2.2,0.9-3.3,1.4l1.3,3.2c1.1-0.4,2.2-0.8,3.2-1.2L454,131.3z M450,130.9
	c1.1-0.4,2.3-0.9,3.4-1.3l-1-2.8c-1.2,0.4-2.4,1-3.5,1.5L450,130.9z M451.8,125.1l-1.2-3.5c-1.3,0.4-2.5,1-3.8,1.5l1.3,3.3
	C449.5,126,450.7,125.5,451.8,125.1z M461.7,137.5l-0.8-2.9c-1.2,0.4-2.4,0.8-3.5,1.3l0.9,2.8C459.4,138.2,460.5,137.8,461.7,137.5z
	 M460.5,132.9l-1-3.6c-1.3,0.4-2.6,0.9-3.8,1.3l1.1,3.5C458.1,133.7,459.3,133.3,460.5,132.9z M455.1,129c1.4-0.4,2.7-0.9,3.9-1.3
	l-0.8-3c-1.4,0.4-2.7,0.9-4.1,1.4L455.1,129z M457.9,123.2l-1-3.6c-1.5,0.4-2.9,0.9-4.4,1.4l1.1,3.5
	C455.1,124,456.6,123.5,457.9,123.2z M463.7,136.9c1-0.3,1.9-0.5,2.9-0.7l-0.5-3.3c-1.3,0.4-2.6,0.8-3.9,1.2l0.7,3.1
	C463.2,137,463.4,137,463.7,136.9z M465.8,131.4l-0.6-3.9c-1.5,0.4-2.9,0.8-4.3,1.3l0.9,3.7C463.2,132.1,464.5,131.7,465.8,131.4z
	 M460.5,127.3c1.6-0.5,3.1-0.9,4.5-1.2l-0.4-3.1c-1.6,0.4-3.2,0.8-4.7,1.3L460.5,127.3z M464.3,121.5l-0.5-3.6
	c-1.7,0.3-3.4,0.8-5.2,1.2l0.9,3.6C461.2,122.2,462.9,121.8,464.3,121.5z M471.2,135.4l-0.3-3.8c-1.3,0.3-2.7,0.6-4,1l0.5,3.4
	C468.7,135.8,470,135.6,471.2,135.4z M466.1,127.3l0.6,3.9c1.5-0.4,2.9-0.7,4.1-1l-0.3-3.9C469,126.5,467.5,126.9,466.1,127.3z
	 M427.6,286.9l3.1,1.4c0.6-1.5,1.3-3,1.8-4.7l-3.4-1.3C428.5,284.5,428,286,427.6,286.9z M427.8,281.9l-2.9-1.2
	c-0.5,1.7-1,3.2-1.3,4.4l2.7,1.3C426.9,284.9,427.3,283.4,427.8,281.9z M419,249c0,0.8,0,1.5,0,2.3h2.9c0-1.2,0-1.9,0-2.4L419,249z
	 M427.1,248.7l-2.7,0.1c0,0.8-0.1,1.7-0.1,2.5h2.9C427.1,249.7,427.1,248.8,427.1,248.7z M431.9,248.6l-2.2,0.1
	c0,0.9-0.1,1.7-0.1,2.6h2.4C432,249.6,431.9,248.7,431.9,248.6z M434.4,248.5c0,1-0.1,1.9-0.1,2.8h3.1c0-1,0-1.9,0-2.9L434.4,248.5z
	 M434,257l3.3,0.2c0.1-1,0.1-2,0.1-3l-3.2-0.1C434.2,255.1,434.1,256.1,434,257z M429.2,256.8l2.6,0.1c0.1-1.1,0.1-2,0.1-2.9
	l-2.5-0.1C429.4,254.9,429.4,255.8,429.2,256.8z M423.9,256.5l3.1,0.2c0.1-1.1,0.1-2,0.1-2.9l-3-0.1
	C424.1,254.6,424,255.6,423.9,256.5z M418.9,256.3l2.9,0.1c0.1-1.1,0.1-2,0.1-2.9l-2.9-0.1c0,1.2-0.1,2.3-0.1,3.5L418.9,256.3z
	 M418.5,261.7l0.1-0.3l2.9,0.3c0.1-1.1,0.2-2.2,0.3-3.2l-2.9-0.3C418.7,259.3,418.6,260.5,418.5,261.7z M423.4,261.8l3.4,0.3
	c0.1-1.2,0.2-2.2,0.3-3.2l-3.2-0.3C423.6,259.7,423.5,260.7,423.4,261.8z M428.7,262.2l2.7,0.3c0.1-1.2,0.2-2.2,0.3-3.3L429,259
	C428.9,260.1,428.8,261.1,428.7,262.2z M433.4,262.6l3.5,0.3c0.1-1.1,0.2-2.2,0.3-3.3l-3.4-0.3C433.7,260.4,433.6,261.5,433.4,262.6
	z M417.9,266.1l2.9,0.5c0.2-1.2,0.3-2.2,0.4-3.3l-2.9-0.4C418.2,264,418.1,265,417.9,266.1z M422.5,266.9l3.5,0.6
	c0.2-1.2,0.3-2.4,0.4-3.6l-3.4-0.4C422.9,264.7,422.7,265.8,422.5,266.9z M427.8,267.9l2.9,0.5c0.2-1.3,0.4-2.6,0.5-3.8l-2.8-0.4
	C428.2,265.5,428,266.7,427.8,267.9z M432.5,268.8l3.6,0.6c0.2-1.3,0.4-2.6,0.6-4l-3.6-0.5C432.9,266.3,432.7,267.5,432.5,268.8z
	 M416.9,271.2l2.9,0.8c0.3-1.3,0.4-2.5,0.6-3.7l-2.9-0.6C417.5,268.9,417.2,270,416.9,271.2z M421.5,272.4l3.6,1
	c0.3-1.3,0.5-2.7,0.7-4l-3.6-0.7C422,270,421.7,271.2,421.5,272.4z M426.7,273.8l3,0.8c0.3-1.5,0.6-2.9,0.8-4.3l-2.9-0.6
	C427.3,271.1,426.9,272.5,426.7,273.8z M431.1,275l3.6,1c0.3-1.5,0.6-3,1-4.5l-3.6-0.8C431.8,272.2,431.5,273.6,431.1,275z
	 M419.6,273.3l-3-0.9c-0.1,0.3-0.1,0.6-0.2,0.8c-0.3,1-0.5,1.9-0.8,2.8l3.1,1.2C419,275.9,419.4,274.6,419.6,273.3z M424.8,274.8
	l-3.6-1.1c-0.3,1.5-0.7,2.8-1,4.1l3.6,1.4C424.1,277.8,424.5,276.3,424.8,274.8z M425.2,279.8l2.9,1.2c0.4-1.6,0.9-3.2,1.2-4.8
	l-3-0.9C425.9,276.9,425.5,278.4,425.2,279.8z M429.4,281.4l3.4,1.3c0.6-1.7,1.1-3.4,1.5-5.1l-3.6-1
	C430.3,278.4,429.9,280,429.4,281.4z M414,280.6l3.4,1.6c0.4-1.3,0.8-2.6,1.1-4l-3.2-1.3C414.9,278.2,414.4,279.5,414,280.6z
	 M423.5,280.2l-3.6-1.4c-0.4,1.5-0.8,2.9-1.2,4l3.6,1.7C422.7,283,423.1,281.6,423.5,280.2z"/>
<path class="st0" d="M345.2,402.8h32.1v13.4h-32.1h-13.3v-13.4v-48.7h13.3V402.8z M197.9,374.2c0,5.6-2.2,10.6-5.9,14.2
	c-3.6,3.6-8.6,5.9-14.1,5.9h-19.6v21.9H145v-21.9v-40.1h13.3h19.6C188.9,354.1,197.9,363.1,197.9,374.2z M184.8,374.2
	c0-4.4-3.5-7.9-7.9-7.9h-18.6v15.8h18.6C181.2,382.2,184.8,378.6,184.8,374.2z M276.9,391.8c0,6.9-5.6,12.5-12.5,12.5h-4.5
	c-6.9,0-12.5-5.6-12.5-12.5v-37.7h-13.3v37.7c0,13.4,10.9,24.4,24.2,24.4h7.6c13.4,0,24.2-10.9,24.2-24.4v-37.7H277L276.9,391.8
	L276.9,391.8z M557.5,402.1l6.4,14h-13.3l-6.4-14h-30.6l-6.4,14h-13.4l6.4-14l5.8-12.7l16.1-35.3h13.4l16.1,35.3L557.5,402.1z
	 M538.4,389.5l-9.5-20.8l-9.5,20.8H538.4z M654.7,416.2h-15c0,0-4.7-9.6-7.6-15.8c-2.9-6.1-6.2-6.1-6.2-6.1h-16.4v21.9h-13.3v-21.9
	v-40.1h13.3h18.5c11,0,20,9,20,20.1c0,5.6-2.2,10.6-5.9,14.2c-0.5,0.5-1.1,1-1.6,1.5C647.3,397.5,654.7,416.2,654.7,416.2z
	 M609.5,382.2h17.4c4.3,0,7.9-3.5,7.9-7.9c0-4.4-3.5-7.9-7.9-7.9h-17.4V382.2z M441.5,379.1c0,0-19.9-2.6-18-8.7
	c1.9-6.1,19.3-8.3,29.4,3l9-8.5c0,0-7.5-11.1-27.4-11.1c-19.9,0-23.7,11.7-23.7,11.7s-7.4,17.8,19,23.1c0,0,22,3.3,19.9,9.9
	c-2,6.5-19.4,10.4-32.4-2.9l-9.7,9.1c0,0,8.1,11.9,29.4,11.9c21.3,0,25.5-12.6,25.5-12.6S470,384.8,441.5,379.1z"/>
<path class="st0" d="M270.8,463.8H291v5.1h-6.9v17.5h-6.4v-17.5h-6.9L270.8,463.8L270.8,463.8z M326.2,479.3l4.8,7.1h-6.8l-4.1-6
	h-3.4v6h-6.4v-22.6h10.2c2,0,3.8,0.3,5.3,1c1.5,0.7,2.7,1.7,3.4,2.9c0.8,1.3,1.2,2.8,1.2,4.4c0,1.7-0.4,3.1-1.1,4.3
	C328.7,477.6,327.6,478.6,326.2,479.3z M324.2,472.2c0-1-0.3-1.9-1-2.4c-0.7-0.6-1.7-0.9-2.9-0.9h-3.5v6.6h3.5
	c1.3,0,2.3-0.3,2.9-0.8C323.8,474,324.2,473.2,324.2,472.2z M364.6,463.8l9.9,22.6h-6.6l-1.8-4.4h-9.5l-1.8,4.4h-6.5l9.9-22.6H364.6
	z M364.3,477.3l-2.9-7.2l-2.9,7.2H364.3z M414.9,469.1c1,1.7,1.6,3.7,1.6,6c0,2.3-0.5,4.3-1.6,6c-1,1.7-2.5,3-4.5,4
	c-1.9,1-4.1,1.4-6.6,1.4h-10.6v-22.6h10.6c2.5,0,4.6,0.4,6.6,1.4C412.4,466.1,413.9,467.5,414.9,469.1z M410.1,475.1
	c0-1.9-0.6-3.5-1.7-4.5c-1.1-1.1-2.7-1.7-4.6-1.7h-4v12.4h4c1.9,0,3.5-0.6,4.6-1.7C409.5,478.5,410.1,477.1,410.1,475.1z
	 M436.9,486.4h6.4v-22.6h-6.4V486.4z M479.9,475.8l-9.9-12h-5.2v22.6h6.2v-12l9.9,12h5.2v-22.6h-6.2V475.8z M518.1,478.3h4.5v2.6
	c-1.1,0.5-2.2,0.8-3.4,0.8c-1.3,0-2.4-0.3-3.3-0.8c-1-0.6-1.7-1.3-2.2-2.3c-0.5-1-0.8-2.1-0.8-3.3c0-2,0.6-3.5,1.8-4.7
	c1.1-1.2,2.7-1.7,4.6-1.7c2.1,0,3.9,0.8,5.5,2.5l4.1-3.6c-1.1-1.3-2.5-2.4-4.2-3.1c-1.7-0.7-3.6-1.1-5.7-1.1c-2.4,0-4.5,0.5-6.4,1.5
	c-1.9,1-3.4,2.4-4.5,4.2c-1.1,1.8-1.6,3.8-1.6,6.1c0,2.2,0.5,4.3,1.6,6.1c1.1,1.8,2.5,3.2,4.5,4.2c1.9,1,4,1.5,6.4,1.5
	c1.7,0,3.3-0.3,5-0.8c1.7-0.5,3.1-1.2,4.5-2.1v-5.7v-3.6v-0.4h-10.1v4.1H518.1z"/>
</svg>
